<svg width="88" height="39" viewBox="0 0 88 39" fill="none" xmlns="http://www.w3.org/2000/svg">
<path d="M25.55 33.6079C25.2961 33.1576 25.0436 32.7906 24.8903 32.3861C24.8122 32.1799 24.8271 31.9976 24.537 32.0034C24.1128 32.012 24.2445 32.3284 24.2462 32.5357C24.2561 33.7113 23.9877 34.8501 23.5816 35.9217C23.0961 37.2028 22.2362 38.2459 20.7869 38.5113C19.4401 38.758 18.305 38.254 17.5323 37.1523C16.7773 36.0758 16.5191 34.7867 16.4725 33.4981C16.4068 31.6774 16.403 29.8506 16.4712 28.0301C16.5351 26.3257 16.8649 24.6442 17.3213 23.0038C17.5367 22.2296 18.2682 22.0229 18.9978 22.1328C19.6592 22.2324 20.2341 22.4775 20.2557 23.351C20.287 24.6115 19.6618 25.7158 19.5095 26.9308C19.1826 29.5386 19.1831 32.1378 19.6267 34.7293C19.6781 35.0295 19.9346 35.33 20.2517 35.3382C20.5704 35.3464 20.5675 34.9864 20.6868 34.7397C21.4656 33.1293 21.3281 31.3452 21.6947 29.6588C21.9688 28.398 22.3491 27.2011 22.9085 26.0387C23.2264 25.3782 23.8243 25.1438 24.3694 25.113C24.8892 25.0837 25.3944 25.4649 25.7155 26.018C26.3335 27.0829 26.5778 28.2725 26.979 29.4102C27.774 31.6649 29.0431 33.5706 31.052 34.9402C31.3102 35.1163 31.5089 35.2413 31.7952 35.0725C32.1284 34.876 31.7745 34.6545 31.816 34.4485C31.9936 33.5647 31.4302 32.8488 31.1143 32.157C30.128 29.9971 29.5365 27.7381 29.33 25.4169C29.1119 22.9656 30.4425 21.2037 33.5316 21.7191C35.4667 22.0419 37.3814 22.4766 39.3633 22.3288C40.3722 22.2535 41.3765 22.3855 41.8788 23.3596C42.4857 24.5368 41.9432 25.5591 41.1964 26.5313C39.6125 28.5932 38.5952 30.8875 38.5457 33.5384C38.5431 33.6786 38.5105 33.8307 38.5527 33.957C38.71 34.428 38.6946 35.1194 39.1131 35.2937C39.5021 35.4557 39.8141 34.8352 40.1148 34.5233C41.7483 32.8285 42.7195 30.7366 43.5874 28.5914C43.9658 27.6563 44.2932 26.7006 44.6494 25.7564C44.9615 24.9293 45.6113 24.8024 46.4073 24.8369C47.1721 24.87 47.4235 25.4308 47.572 25.9562C48.2423 28.3275 48.9002 30.6849 50.2925 32.7795C50.6828 33.3667 51.3432 33.6953 51.6006 34.363C51.6912 34.598 51.8901 34.5454 52.0358 34.5105C52.2922 34.4492 52.4196 34.259 52.4315 33.9795C52.5089 32.1683 52.4592 30.352 52.1662 28.5721C51.921 27.0828 51.7399 25.5891 51.616 24.0918C51.5652 23.4784 51.3969 23.3255 50.8312 23.3721C49.3346 23.4953 48.0279 22.9515 46.86 22.0823C45.7074 21.2245 45.5407 19.1145 46.7298 17.9176C48.6023 16.0328 51.3282 16.6058 52.9876 18.8158C53.3357 19.2794 53.3396 19.581 54.057 19.0438C55.0394 18.3082 56.2844 17.9175 57.3111 17.1655C57.7625 16.8349 58.5022 16.4863 58.8465 17.1575C59.1372 17.7242 59.1128 18.4417 58.3776 18.975C57.0844 19.9133 55.8207 20.8904 54.4459 21.7095C53.9747 21.9903 54.077 22.4391 54.1326 22.828C54.6616 26.5266 55.5961 30.1812 55.368 33.961C55.2928 35.2068 54.9585 36.3859 53.7888 37.0634C51.9106 38.1513 49.8978 37.2041 48.6474 35.6305C47.5142 34.2044 46.5379 32.6874 45.924 30.6981C45.0591 32.9976 43.8855 34.8355 42.5018 36.5367C41.0978 38.2629 38.8799 39.0773 37.1767 37.7008C36.1874 36.9012 35.7175 35.8033 35.6109 34.5793C35.3201 31.2433 36.3063 28.2523 38.1814 25.5215C38.2146 25.4732 38.2168 25.4036 38.2555 25.2655C36.5149 25.3555 34.8436 24.8941 33.1296 24.8399C32.5807 24.8225 32.3938 24.9768 32.4364 25.5337C32.5961 27.622 33.2849 29.5468 34.1228 31.4439C34.7709 32.9112 35.2634 34.4019 34.7793 36.0758C34.3343 37.6142 32.7909 38.646 31.2694 38.2679C29.2453 37.7649 27.754 36.5278 26.5458 34.8865C26.2414 34.473 25.9109 34.0787 25.55 33.6079Z" fill="#FFA858"/>
<path d="M18.7913 1.07741C22.9658 -1.28753 27.9922 0.419534 30.1615 4.45444C31.6145 7.15711 32.3902 10.0014 32.4105 13.0127C32.4283 15.6596 31.6598 18.1964 29.8246 20.1523C26.9874 23.1763 21.4946 23.3497 19.2927 19.5563C19.0495 19.1373 18.7927 19.184 18.4677 19.1724C16.9258 19.1175 15.3838 19.2998 13.8598 18.7687C10.5708 17.6225 7.87108 14.2443 8.0319 10.6929C8.07317 9.78149 8.10785 8.8956 7.56633 8.01262C7.16029 7.35054 7.20708 6.42313 7.86269 5.81731C8.45285 5.27197 9.14512 4.73798 10.0078 5.43697C10.0781 5.49395 10.2136 5.51106 10.3078 5.49211C12.7718 4.99667 15.6552 5.41668 17.02 2.49087C17.3723 1.73553 18.2189 1.63742 18.7913 1.07741Z" fill="#FFA858"/>
<path d="M6.16852 18.5404C7.94714 18.5199 9.63658 18.4207 11.1254 19.4337C13.0186 20.7218 14.2572 22.4096 14.5728 24.7425C14.9679 27.6638 14.7759 30.5954 14.7233 33.5164C14.7017 34.7163 14.6025 35.9335 14.558 37.1446C14.5233 38.0861 13.677 38.8843 12.9435 38.4792C11.6247 37.7509 10.4992 38.479 9.30622 38.6508C6.57492 39.0441 3.51605 38.3269 1.48222 35.7029C-1.84958 31.4042 0.766985 25.3486 6.03135 24.2178C7.46472 23.9099 8.89058 23.882 10.3273 24.2015C10.5857 24.259 10.975 24.2736 11.1281 24.1258C11.3411 23.9204 11.0804 23.6592 10.9392 23.4106C9.78737 21.3817 7.63966 21.3411 5.66655 21.5521C5.16018 21.6063 4.63582 21.6018 4.13455 21.7036C3.08563 21.9166 2.72233 21.1303 2.62509 20.4402C2.51806 19.6805 2.96142 18.9245 3.82041 18.7856C4.55823 18.6664 5.29745 18.4177 6.16852 18.5404Z" fill="#FFA858"/>
<path d="M60.6874 30.7948C62.6545 28.8122 64.6268 26.9379 66.3985 24.8705C66.5253 24.7225 66.7884 24.626 66.7011 24.3754C66.6079 24.1083 66.3452 24.2237 66.1604 24.2263C63.7573 24.2592 61.369 23.8944 58.9602 23.9825C58.3428 24.0051 57.7959 24.3066 57.073 24.0696C55.755 23.6376 56.2758 22.6774 56.2471 21.9203C56.2197 21.1954 56.9615 21.3113 57.3966 21.2956C58.8658 21.2425 60.338 21.2753 61.809 21.2753C64.7161 21.2753 67.6237 21.3073 70.5299 21.2555C71.3859 21.2402 71.7878 21.6808 72.099 22.3269C72.4119 22.9764 72.0234 23.4359 71.6078 23.8675C69.6867 25.8622 67.7584 27.8499 65.843 29.85C64.3982 31.3587 62.9691 32.8825 61.4861 34.449C64.865 34.7131 68.1576 34.7973 71.4543 34.7378C72.1494 34.7252 72.8037 34.6981 72.846 35.6905C72.9017 36.9967 72.706 37.3129 71.6088 37.476C69.4382 37.7985 67.28 37.674 65.0961 37.5153C62.6573 37.3381 60.1954 37.458 57.744 37.4851C57.0913 37.4924 56.6419 37.3647 56.3547 36.6984C56.0601 36.0147 56.2426 35.4877 56.6869 35.0113C57.9912 33.6125 59.3172 32.2339 60.6874 30.7948Z" fill="#FFA858"/>
<path d="M71.5784 30.0481C71.6651 27.6741 71.9922 25.4792 73.6366 23.7066C74.9959 22.2413 76.5133 21.2719 78.6465 21.2355C80.9357 21.1965 82.9325 21.7279 84.7378 23.1387C87.3195 25.1562 88.4975 27.987 87.8043 31.4925C87.0892 35.1088 84.8645 36.9392 81.3152 37.4958C78.2206 37.981 75.6393 36.8878 73.5754 34.8096C72.5724 33.7996 71.6999 32.3817 71.7744 30.7183C71.7828 30.5299 71.6492 30.335 71.5784 30.0481Z" fill="#FFA858"/>
<path d="M50.2647 20.0585C50.4709 20.3263 50.8958 20.4919 50.6863 20.7572C50.5207 20.9669 50.1167 20.9436 49.8503 20.6937C49.7752 20.6232 49.7081 20.5277 49.6182 20.4925C49.2696 20.3558 48.7893 20.4376 48.6707 19.9407C48.6531 19.8669 48.8194 19.6881 48.9295 19.6554C49.4159 19.5114 49.8799 19.5211 50.2647 20.0585Z" fill="#19181C"/>
<path d="M23.707 19.3818C21.3707 18.7941 20.4527 16.3591 21.461 14.2562C22.0025 13.1269 22.5271 11.994 23.2813 10.9865C23.6846 10.4476 23.7322 9.85152 23.2096 9.44891C22.6383 9.00876 22.1728 9.52132 21.8331 9.92436C20.5253 11.4757 19.09 12.9456 18.7095 15.0796C18.5522 15.962 17.6479 16.5059 16.3026 16.413C14.1797 16.2665 12.4263 15.3564 11.2862 13.4726C10.4677 12.1202 10.0476 10.7135 10.5427 9.11627C10.8928 7.98682 11.4698 7.33024 12.6033 7.41505C15.1646 7.60669 16.8847 6.47297 18.455 4.51846C20.7503 1.6617 25.2054 1.6847 27.4031 5.31693C28.5664 7.23954 29.2806 9.29759 29.2741 11.5521C29.2707 12.7205 29.3912 13.8852 29.1017 15.0658C28.403 17.9155 26.6697 19.3818 23.707 19.3818Z" fill="#19181C"/>
<path d="M7.48103 26.9555C8.84366 26.9644 10.1153 26.8525 11.2988 27.5228C11.6951 27.7472 11.8392 27.9634 11.8354 28.3946C11.819 30.2513 11.8244 32.1083 11.8321 33.9652C11.8335 34.2954 11.787 34.5461 11.456 34.7365C9.17522 36.0489 6.7969 36.2325 4.66667 34.6841C3.16346 33.5914 2.11845 31.2574 3.76435 29.1919C4.73403 27.9749 5.87518 27.2117 7.48103 26.9555Z" fill="#19181C"/>
<path d="M74.9432 31.1157C74.0178 29.2878 74.7368 27.7668 75.5477 26.2323C76.3049 24.7995 77.6407 24.1139 79.068 24.0803C80.4533 24.0476 81.8201 24.667 82.9499 25.5996C84.4791 26.8617 85.3699 28.4261 85.0232 30.4567C84.77 31.9401 84.0435 33.0899 82.6741 33.9438C80.3272 35.4072 78.3432 34.5992 76.3969 33.2491C75.6968 32.7635 75.3241 31.9599 74.9432 31.1157Z" fill="#19181C"/>
<path d="M20.5271 8.38366C20.1103 7.61718 19.6453 7.0721 18.7743 6.95645C18.1947 6.8795 17.971 6.46485 18.2435 5.92878C18.6305 5.1676 20.0289 4.96964 20.9376 5.51024C21.7757 6.00888 22.3214 7.5633 21.8273 8.20116C21.5277 8.5879 21.0824 8.7817 20.5271 8.38366Z" fill="#FFA858"/>
</svg>
